<svg viewBox="0 0 800 600" xmlns="http://www.w3.org/2000/svg">
    <!-- Background -->
    <rect width="800" height="600" fill="#ffffff"/>
    
    <!-- Title -->
    <text x="400" y="40" text-anchor="middle" font-size="24" fill="#1976d2" font-weight="bold">Solution Benchmarking Analysis</text>
    
    <!-- Legend -->
    <rect x="600" y="70" width="180" height="110" rx="5" fill="#f5f5f5" stroke="#666" stroke-width="1"/>
    <circle cx="620" cy="90" r="8" fill="#4caf50"/>
    <circle cx="620" cy="115" r="8" fill="#2196f3"/>
    <circle cx="620" cy="140" r="8" fill="#ff9800"/>
    <circle cx="620" cy="165" r="8" fill="#f44336"/>
    <text x="640" y="95" font-size="12">Pharmascope</text>
    <text x="640" y="120" font-size="12">Traditional GIS</text>
    <text x="640" y="145" font-size="12">Market Research</text>
    <text x="640" y="170" font-size="12">Manual Analysis</text>
    
    <!-- Axis Labels -->
    <text x="400" y="580" text-anchor="middle" font-size="14">Performance Metrics</text>
    <text x="30" y="300" transform="rotate(-90, 30, 300)" text-anchor="middle" font-size="14">Score (0-100)</text>
    
    <!-- Grid Lines -->
    <path d="M 100 500 L 700 500" stroke="#ddd" stroke-width="1" stroke-dasharray="5,5"/>
    <path d="M 100 400 L 700 400" stroke="#ddd" stroke-width="1" stroke-dasharray="5,5"/>
    <path d="M 100 300 L 700 300" stroke="#ddd" stroke-width="1" stroke-dasharray="5,5"/>
    <path d="M 100 200 L 700 200" stroke="#ddd" stroke-width="1" stroke-dasharray="5,5"/>
    
    <!-- Y-Axis Labels -->
    <text x="90" y="505" text-anchor="end" font-size="12">0</text>
    <text x="90" y="405" text-anchor="end" font-size="12">25</text>
    <text x="90" y="305" text-anchor="end" font-size="12">50</text>
    <text x="90" y="205" text-anchor="end" font-size="12">75</text>
    <text x="90" y="105" text-anchor="end" font-size="12">100</text>
    
    <!-- Metrics -->
    <!-- Accuracy -->
    <text x="175" y="520" text-anchor="middle" font-size="12">Accuracy</text>
    <line x1="150" y1="500" x2="150" y2="180" stroke="#ddd" stroke-width="1"/>
    <circle cx="150" cy="220" r="8" fill="#4caf50"/> <!-- Pharmascope -->
    <circle cx="150" cy="250" r="8" fill="#2196f3"/> <!-- Traditional GIS -->
    <circle cx="150" cy="280" r="8" fill="#ff9800"/> <!-- Market Research -->
    <circle cx="150" cy="320" r="8" fill="#f44336"/> <!-- Manual -->
    
    <!-- Speed -->
    <text x="275" y="520" text-anchor="middle" font-size="12">Processing Speed</text>
    <line x1="250" y1="500" x2="250" y2="180" stroke="#ddd" stroke-width="1"/>
    <circle cx="250" cy="200" r="8" fill="#4caf50"/>
    <circle cx="250" cy="300" r="8" fill="#2196f3"/>
    <circle cx="250" cy="350" r="8" fill="#ff9800"/>
    <circle cx="250" cy="400" r="8" fill="#f44336"/>
    
    <!-- Cost Efficiency -->
    <text x="375" y="520" text-anchor="middle" font-size="12">Cost Efficiency</text>
    <line x1="350" y1="500" x2="350" y2="180" stroke="#ddd" stroke-width="1"/>
    <circle cx="350" cy="210" r="8" fill="#4caf50"/>
    <circle cx="350" cy="280" r="8" fill="#2196f3"/>
    <circle cx="350" cy="320" r="8" fill="#ff9800"/>
    <circle cx="350" cy="250" r="8" fill="#f44336"/>
    
    <!-- Data Coverage -->
    <text x="475" y="520" text-anchor="middle" font-size="12">Data Coverage</text>
    <line x1="450" y1="500" x2="450" y2="180" stroke="#ddd" stroke-width="1"/>
    <circle cx="450" cy="230" r="8" fill="#4caf50"/>
    <circle cx="450" cy="260" r="8" fill="#2196f3"/>
    <circle cx="450" cy="290" r="8" fill="#ff9800"/>
    <circle cx="450" cy="350" r="8" fill="#f44336"/>
    
    <!-- Scalability -->
    <text x="575" y="520" text-anchor="middle" font-size="12">Scalability</text>
    <line x1="550" y1="500" x2="550" y2="180" stroke="#ddd" stroke-width="1"/>
    <circle cx="550" cy="210" r="8" fill="#4caf50"/>
    <circle cx="550" cy="270" r="8" fill="#2196f3"/>
    <circle cx="550" cy="340" r="8" fill="#ff9800"/>
    <circle cx="550" cy="380" r="8" fill="#f44336"/>
    
    <!-- User Experience -->
    <text x="675" y="520" text-anchor="middle" font-size="12">User Experience</text>
    <line x1="650" y1="500" x2="650" y2="180" stroke="#ddd" stroke-width="1"/>
    <circle cx="650" cy="220" r="8" fill="#4caf50"/>
    <circle cx="650" cy="280" r="8" fill="#2196f3"/>
    <circle cx="650" cy="310" r="8" fill="#ff9800"/>
    <circle cx="650" cy="360" r="8" fill="#f44336"/>
    
    <!-- Connecting Lines -->
    <path d="M 150 220 L 250 200 L 350 210 L 450 230 L 550 210 L 650 220" stroke="#4caf50" stroke-width="2" fill="none"/>
    <path d="M 150 250 L 250 300 L 350 280 L 450 260 L 550 270 L 650 280" stroke="#2196f3" stroke-width="2" fill="none"/>
    <path d="M 150 280 L 250 350 L 350 320 L 450 290 L 550 340 L 650 310" stroke="#ff9800" stroke-width="2" fill="none"/>
    <path d="M 150 320 L 250 400 L 350 250 L 450 350 L 550 380 L 650 360" stroke="#f44336" stroke-width="2" fill="none"/>
</svg>